<svg id="Capa_1" data-name="Capa 1" xmlns="http://www.w3.org/2000/svg" xmlns:xlink="http://www.w3.org/1999/xlink" viewBox="0 0 1578 761.32"><defs><style>.cls-1{fill:#fff;}.cls-1,.cls-2{stroke:#000;stroke-miterlimit:10;stroke-width:5px;}.cls-2{fill:#f4b288;}</style></defs><image width="1140" height="550" transform="translate(0 0) scale(1.38)" xlink:href="PedagogiaEducacionBasicaEspecializacion01a-1210x550-1140x550.jpg"/><path class="cls-1" d="M206.08,521.64l72,215.88L672.57,650.1l64.65-16.57L732.29,599,686.21,446.62,674.13,406Z" transform="translate(93 1)"/><path class="cls-2" d="M174.84,634.69c1.19-3,6.51-8.52,17.11-19.48,6-6.18,11.05-11.19,14.65-14.69,0,0,12-11.38,33.13-23.88,8-4.72,13.76-7.48,18.12-5.07,4.16,2.3,5.74,8.56,4.95,13.34-.65,3.93-3,7.15-12.17,14.31a185.41,185.41,0,0,1-21.75,14.56c9.24-2.44,16.49-4.92,21.57-6.81,5.61-2.08,11.34-4.47,18.54-3.24,5.29.91,6.33,2.9,6.54,3.34,1.66,3.54-2.7,8.68-4.34,10.62-5.37,6.33-11.93,9.3-19.42,12.1a206.47,206.47,0,0,1-28.91,8.48c21.49-4.59,37.18-8,44-10a23.06,23.06,0,0,1,7.54-.75c3.05.19,8.94.56,10.61,4.34,1.51,3.41-1.73,7.93-2.71,9.29-5.06,7-13,9.56-39.79,15.75-5.58,1.29-10.29,2.35-13.74,3.11l46.44-7.62a60.13,60.13,0,0,1,8.58,3.83c5.42,3,8.49,4.62,9.4,7.51,1.58,5-4.05,10.73-5,11.74-6.27,6.42-13.2,6.24-33.29,10.43-15.77,3.28-13.51,3.81-19.24,4.36s-21,2-35-5.57C182,674.64,168.7,650.15,174.84,634.69Z" transform="translate(93 1)"/><path class="cls-2" d="M757.73,495.93c-2.35-2.18-9.54-4.89-23.83-10.21-8-3-14.8-5.34-19.55-6.94,0,0-15.77-5.08-40.19-7.28-9.22-.83-15.63-.82-18.53,3.24-2.76,3.86-1.49,10.2,1.28,14.16,2.28,3.27,5.76,5.18,17.15,7.68a185,185,0,0,0,25.9,3.76c-9.39,1.78-17,2.67-22.41,3.15-5.95.54-12.15.85-18.12,5.07-4.38,3.09-4.46,5.34-4.46,5.83,0,3.91,6.18,6.67,8.49,7.71,7.58,3.4,14.78,3.25,22.74,2.56a207.44,207.44,0,0,0,29.74-4.81c-21.37,5.12-37,8.75-44,10a23.28,23.28,0,0,0-7.12,2.58c-2.67,1.48-7.83,4.36-7.71,8.49.11,3.73,5,6.41,6.45,7.21,7.57,4.11,15.86,3,42.69-2.93,5.59-1.24,10.3-2.31,13.75-3.11l-45.2,13.13a61.6,61.6,0,0,0-6.09,7.15c-3.62,5-5.67,7.83-5.25,10.83.71,5.15,8.28,7.93,9.61,8.42,8.42,3.09,14.6-.05,34.53-4.93,15.65-3.83,13.84-2.38,19.25-4.36s19.81-7.24,29.17-20.09C768.49,535.06,769.94,507.24,757.73,495.93Z" transform="translate(93 1)"/><path d="M305.76,545.63l.17.77a8.6,8.6,0,0,1,.24,2.07,4.59,4.59,0,0,1-.42,1.77,9.7,9.7,0,0,1-1.19,1.92c-.62.81-1.11,1.49-1.46,2a4.49,4.49,0,0,0-.66,1.57,4.4,4.4,0,0,0,.08,1.71,3,3,0,0,0,1.53,2.13,4.41,4.41,0,0,0,3,.19,8.49,8.49,0,0,0,2.52-1,18.76,18.76,0,0,0,2-1.37l1.31,1.78a13.76,13.76,0,0,1-2.39,1.63,12,12,0,0,1-3.08,1.12,6.54,6.54,0,0,1-4.73-.41,5.07,5.07,0,0,1-2.44-3.53,5.68,5.68,0,0,1-.09-2.44,6.19,6.19,0,0,1,.86-2.05c.43-.66.93-1.38,1.53-2.14a12.09,12.09,0,0,0,1.17-1.8,3.83,3.83,0,0,0,.41-1.44,6.12,6.12,0,0,0-.17-1.62l-.11-.48ZM305.4,541a2,2,0,0,1-.15,1.58,1.84,1.84,0,0,1-1.17.72,1.89,1.89,0,0,1-1.33-.15,1.94,1.94,0,0,1-.84-1.36,2,2,0,0,1,.17-1.6,1.85,1.85,0,0,1,1.13-.74,1.77,1.77,0,0,1,1.37.18A2.08,2.08,0,0,1,305.4,541Z" transform="translate(93 1)"/><path d="M326.17,545.59a5.65,5.65,0,0,1-.21,3.48,6.09,6.09,0,0,1-2.2,2.67,10.71,10.71,0,0,1-3.87,1.62,21.65,21.65,0,0,1-2.34.4,15.52,15.52,0,0,1-2.09.12,8.93,8.93,0,0,1-1.73-.18l-.54-2.41a19.1,19.1,0,0,0,2.89.24,14.07,14.07,0,0,0,3.43-.37,7.66,7.66,0,0,0,2.64-1,3.64,3.64,0,0,0,1.42-1.65,3.3,3.3,0,0,0,.14-2.1,3.38,3.38,0,0,0-.91-1.74,4.33,4.33,0,0,0-1.92-1,23.07,23.07,0,0,0-3.38-.61,16.9,16.9,0,0,1-2.66-.53,7.48,7.48,0,0,1-2.06-.92,4.84,4.84,0,0,1-1.45-1.47,6.55,6.55,0,0,1-.87-2.15,5.1,5.1,0,0,1,.21-3.16,5.71,5.71,0,0,1,2-2.44,9.42,9.42,0,0,1,3.43-1.47,14.68,14.68,0,0,1,6.16-.14l-.29,2.34a17.64,17.64,0,0,0-2.66-.25,11.38,11.38,0,0,0-2.77.28,6.06,6.06,0,0,0-2.25.94,3.26,3.26,0,0,0-1.19,1.47,3.1,3.1,0,0,0-.11,1.87,3.55,3.55,0,0,0,.91,1.78,4.24,4.24,0,0,0,1.84,1,20.74,20.74,0,0,0,3.07.59,20.69,20.69,0,0,1,3.57.73,5.89,5.89,0,0,1,2.45,1.44A5.26,5.26,0,0,1,326.17,545.59Z" transform="translate(93 1)"/><path d="M333.84,532.6a6.31,6.31,0,0,1,4.59.32,5.57,5.57,0,0,1,2.34,3.83l2.49,11-1.79.41-1-2.29-.12,0a9.22,9.22,0,0,1-1.08,1.81,5,5,0,0,1-1.5,1.28,8.16,8.16,0,0,1-2.3.84,6.4,6.4,0,0,1-2.74.08,4.16,4.16,0,0,1-2.16-1.16,5.13,5.13,0,0,1-1.26-2.51,4.34,4.34,0,0,1,1.08-4.15,11.39,11.39,0,0,1,5.53-2.74l2.76-.76-.22-1a4,4,0,0,0-1.57-2.74,3.73,3.73,0,0,0-2.73-.27,8.4,8.4,0,0,0-2.34.92,16.9,16.9,0,0,0-2,1.37l-1.18-1.69a13.81,13.81,0,0,1,2.29-1.53A11,11,0,0,1,333.84,532.6Zm5.19,7.73-2.44.66a8.51,8.51,0,0,0-4,2,2.86,2.86,0,0,0-.68,2.74,2.53,2.53,0,0,0,1.3,1.87,3.62,3.62,0,0,0,2.38.15,5.28,5.28,0,0,0,3.26-2,4.61,4.61,0,0,0,.56-3.9Z" transform="translate(93 1)"/><path d="M345.56,523.08l1.3,5.74c.15.66.28,1.31.38,1.93s.19,1.12.25,1.47l.13,0a5.66,5.66,0,0,1,1.5-2.28,6.34,6.34,0,0,1,3-1.48,6.23,6.23,0,0,1,5.33,1c1.52,1.13,2.59,3.07,3.22,5.84a11.74,11.74,0,0,1,.22,4.8,6.41,6.41,0,0,1-1.69,3.36,6.64,6.64,0,0,1-3.35,1.76,6.37,6.37,0,0,1-3.31,0,5.49,5.49,0,0,1-2.29-1.32l-.2,0v2.28l-1.77.4-5.2-23Zm6.66,7.49a5.14,5.14,0,0,0-2.63,1.32,3.88,3.88,0,0,0-1,2.41,11.75,11.75,0,0,0,.34,3.59l0,.13a9.11,9.11,0,0,0,2.08,4.44q1.38,1.39,4.07.78a3.92,3.92,0,0,0,3-2.42,8.6,8.6,0,0,0,.06-5,8.46,8.46,0,0,0-2.18-4.46A4,4,0,0,0,352.22,530.57Z" transform="translate(93 1)"/><path d="M367.07,518l.07.3a13.22,13.22,0,0,1-.57,1.21c-.25.47-.53,1-.85,1.51s-.63,1-1,1.53-.64.91-.93,1.28l-1.64.37-.08-.35c.23-.45.47-1,.73-1.59s.49-1.23.72-1.87.41-1.21.55-1.71Zm2.2,23.87-2.46.55-3.66-16.18,2.45-.56Z" transform="translate(93 1)"/><path d="M376.78,522.87a6.25,6.25,0,0,1,4.59.33,5.54,5.54,0,0,1,2.34,3.83l2.49,11-1.78.4-1-2.28-.12,0A8.93,8.93,0,0,1,382.2,538a5.23,5.23,0,0,1-1.5,1.29,8.16,8.16,0,0,1-2.3.84,6.39,6.39,0,0,1-2.74.07A4.15,4.15,0,0,1,373.5,539a5.09,5.09,0,0,1-1.25-2.51,4.33,4.33,0,0,1,1.07-4.16,11.53,11.53,0,0,1,5.53-2.74l2.76-.75-.22-1a4,4,0,0,0-1.57-2.73,3.62,3.62,0,0,0-2.73-.27,8.22,8.22,0,0,0-2.34.92,16.84,16.84,0,0,0-2,1.36l-1.18-1.69a14.24,14.24,0,0,1,2.29-1.53A11.4,11.4,0,0,1,376.78,522.87ZM382,530.6l-2.44.66a8.51,8.51,0,0,0-4,2,2.9,2.9,0,0,0-.68,2.75,2.53,2.53,0,0,0,1.3,1.86,3.56,3.56,0,0,0,2.38.16,5.29,5.29,0,0,0,3.26-2,4.6,4.6,0,0,0,.56-3.9Z" transform="translate(93 1)"/><path d="M400.72,530.08a4.43,4.43,0,0,1-.19,2.79,4.77,4.77,0,0,1-1.85,2.09,10.26,10.26,0,0,1-3.31,1.3,14.44,14.44,0,0,1-3,.4,8.47,8.47,0,0,1-2.34-.26l-.52-2.26a13.89,13.89,0,0,0,2.57.35,10.4,10.4,0,0,0,2.89-.23,5.51,5.51,0,0,0,2.89-1.37,2.22,2.22,0,0,0,.53-2.06,2,2,0,0,0-.64-1.09,3.9,3.9,0,0,0-1.49-.7,18.22,18.22,0,0,0-2.69-.5,26.77,26.77,0,0,1-2.95-.57,4.94,4.94,0,0,1-2.06-1,4.06,4.06,0,0,1-.16-5.58,7.93,7.93,0,0,1,4.11-2.08,12.82,12.82,0,0,1,2.81-.34,13.32,13.32,0,0,1,2.56.24l-.39,2.15a16.72,16.72,0,0,0-2.3-.24,9.64,9.64,0,0,0-2.39.23,5.13,5.13,0,0,0-2.47,1.15,1.77,1.77,0,0,0-.57,1.74,1.9,1.9,0,0,0,.71,1.15A4.13,4.13,0,0,0,392,526c.69.14,1.58.29,2.68.45a20.34,20.34,0,0,1,2.89.56,5.07,5.07,0,0,1,2,1.06A3.86,3.86,0,0,1,400.72,530.08Z" transform="translate(93 1)"/><path d="M426,536.62l-1.57-6.94c-.09-.38-.18-.83-.27-1.34S424,527.4,424,527l-.16,0a5.75,5.75,0,0,1-1.51,2.31,6.45,6.45,0,0,1-3.07,1.49,6.13,6.13,0,0,1-5.24-1q-2.28-1.7-3.22-5.85a11.74,11.74,0,0,1-.22-4.8,6.45,6.45,0,0,1,1.7-3.37,6.64,6.64,0,0,1,3.32-1.77,6,6,0,0,1,3.33.05,6.11,6.11,0,0,1,2.34,1.41l.12,0-.16-2.4,2-.45,5.3,23.42Zm-6.77-7.9a5.25,5.25,0,0,0,2.6-1.27,3.79,3.79,0,0,0,1.07-2.28,10,10,0,0,0-.22-3.35l-.12-.52a8.92,8.92,0,0,0-2.13-4.51,4.24,4.24,0,0,0-4.08-.77,3.83,3.83,0,0,0-3,2.5,8.92,8.92,0,0,0,0,5,8.46,8.46,0,0,0,2.15,4.36A3.91,3.91,0,0,0,419.24,528.72Z" transform="translate(93 1)"/><path d="M441.72,508.44l3.67,16.18-2,.46-.87-2.2-.13,0a5,5,0,0,1-1,1.71,6.27,6.27,0,0,1-1.6,1.27,8,8,0,0,1-2.05.77,7.75,7.75,0,0,1-3.36.11,4.29,4.29,0,0,1-2.4-1.48,7.67,7.67,0,0,1-1.41-3.19l-2.4-10.6,2.48-.56L433,521.37a4.44,4.44,0,0,0,1.6,2.81,3.71,3.71,0,0,0,3,.37,5.47,5.47,0,0,0,2.72-1.33,3.94,3.94,0,0,0,1.09-2.35,10.36,10.36,0,0,0-.26-3.35L439.26,509Z" transform="translate(93 1)"/><path d="M453.07,505.56a6.84,6.84,0,0,1,3.75.11,6.11,6.11,0,0,1,2.84,2.05,9.12,9.12,0,0,1,1.65,3.67l.35,1.52-11.18,2.54a6.53,6.53,0,0,0,2.4,4,5.14,5.14,0,0,0,4.21.61,11.73,11.73,0,0,0,2.65-.9A14.14,14.14,0,0,0,462,517.8l.49,2.16a12.24,12.24,0,0,1-2.24,1.35,14.81,14.81,0,0,1-2.79.89,8.62,8.62,0,0,1-4.29,0,6.62,6.62,0,0,1-3.32-2.19,10,10,0,0,1-2-4.3,11,11,0,0,1-.14-4.72,6.88,6.88,0,0,1,1.81-3.51A7,7,0,0,1,453.07,505.56Zm.42,2a4.12,4.12,0,0,0-2.84,2,6.22,6.22,0,0,0-.57,3.9l8.56-1.94a7.15,7.15,0,0,0-1-2.44,3.82,3.82,0,0,0-1.71-1.42A4.07,4.07,0,0,0,453.49,507.58Z" transform="translate(93 1)"/><path d="M477.91,499.94a6.67,6.67,0,0,1,3.75.11,6.11,6.11,0,0,1,2.84,2.05,9.05,9.05,0,0,1,1.65,3.67l.35,1.52-11.18,2.53a6.53,6.53,0,0,0,2.4,4,5.12,5.12,0,0,0,4.2.62,12.91,12.91,0,0,0,2.66-.9,16.33,16.33,0,0,0,2.26-1.38l.49,2.15a12,12,0,0,1-2.25,1.35,14.42,14.42,0,0,1-2.78.9,8.5,8.5,0,0,1-4.29,0,6.73,6.73,0,0,1-3.33-2.18,9.92,9.92,0,0,1-2-4.3,11.25,11.25,0,0,1-.15-4.73,7,7,0,0,1,1.82-3.51A6.9,6.9,0,0,1,477.91,499.94Zm.42,2a4.15,4.15,0,0,0-2.84,2,6.26,6.26,0,0,0-.57,3.91l8.56-1.94a7.21,7.21,0,0,0-1-2.45,3.63,3.63,0,0,0-1.71-1.41A4,4,0,0,0,478.33,502Z" transform="translate(93 1)"/><path d="M494.85,513.42l-2.46.56-5.21-23,2.47-.56Z" transform="translate(93 1)"/><path d="M511.81,492.26a6.21,6.21,0,0,1,4.68.42c1.19.72,2,2.11,2.5,4.19l2.39,10.54L519,508l-2.35-10.38a4.42,4.42,0,0,0-1.61-2.82,3.73,3.73,0,0,0-3.05-.36c-1.79.41-2.94,1.2-3.44,2.38a7.67,7.67,0,0,0-.09,4.66l1.92,8.48-2.45.55-3.67-16.18,2-.45.9,2.25.13,0a5.18,5.18,0,0,1,1-1.74A5.92,5.92,0,0,1,509.8,493,7,7,0,0,1,511.81,492.26Z" transform="translate(93 1)"/><path d="M522.64,483.75a1.57,1.57,0,0,1,1.13.15,1.63,1.63,0,0,1,.72,1.12,1.61,1.61,0,0,1-.17,1.31,1.52,1.52,0,0,1-1,.64,1.54,1.54,0,0,1-1.14-.16,1.66,1.66,0,0,1-.7-1.12,1.64,1.64,0,0,1,.15-1.31A1.47,1.47,0,0,1,522.64,483.75Zm2.57,5.78,3.67,16.18-2.46.56-3.66-16.18Z" transform="translate(93 1)"/><path d="M537.62,503.74l-9.81-14.8,2.63-.59,5.77,9c.4.62.82,1.3,1.26,2.05a18.38,18.38,0,0,1,1,1.82l.11,0c0-.52.05-1.22.14-2.09s.18-1.67.26-2.38l1.34-10.59,2.63-.6-2.5,17.58Z" transform="translate(93 1)"/><path d="M551.67,483.23a6.85,6.85,0,0,1,3.75.11,6.11,6.11,0,0,1,2.84,2.05,9.12,9.12,0,0,1,1.65,3.67l.34,1.52-11.17,2.53a6.53,6.53,0,0,0,2.4,4,5.12,5.12,0,0,0,4.2.61,11.82,11.82,0,0,0,2.66-.9,14.6,14.6,0,0,0,2.26-1.38l.49,2.16a12.65,12.65,0,0,1-2.25,1.35,15.07,15.07,0,0,1-2.79.89,8.58,8.58,0,0,1-4.28,0,6.68,6.68,0,0,1-3.33-2.19,9.87,9.87,0,0,1-2-4.3,11,11,0,0,1-.15-4.72,6.9,6.9,0,0,1,1.82-3.51A7,7,0,0,1,551.67,483.23Zm.42,2a4.14,4.14,0,0,0-2.84,2,6.22,6.22,0,0,0-.57,3.9l8.56-1.94a7.3,7.3,0,0,0-1-2.45,3.75,3.75,0,0,0-1.71-1.41A4.11,4.11,0,0,0,552.09,485.24Z" transform="translate(93 1)"/><path d="M568.61,496.71l-2.46.56-5.21-23,2.47-.56Z" transform="translate(93 1)"/><path d="M587.46,492.76a6.24,6.24,0,0,1-5.34-1q-2.26-1.69-3.2-5.82t.4-6.73a6.26,6.26,0,0,1,4.39-3.24,7,7,0,0,1,2.32-.17,5.45,5.45,0,0,1,1.86.54,5.8,5.8,0,0,1,1.46,1l.18,0c-.11-.29-.25-.7-.41-1.22s-.27-1-.35-1.29l-1.47-6.48,2.45-.56,5.21,23-2,.45-.89-2.22-.11,0a5.69,5.69,0,0,1-.86,1.58,5.41,5.41,0,0,1-1.45,1.31A7,7,0,0,1,587.46,492.76Zm-.07-2.13a4.36,4.36,0,0,0,3.34-2.31,7.63,7.63,0,0,0,.08-4.63l-.1-.44a9.17,9.17,0,0,0-2.1-4.51q-1.4-1.42-4.1-.81a3.86,3.86,0,0,0-3,2.5,9,9,0,0,0,0,5,8.31,8.31,0,0,0,2.16,4.36A3.93,3.93,0,0,0,587.39,490.63Z" transform="translate(93 1)"/><path d="M602.64,471.68a6.75,6.75,0,0,1,3.75.12,6,6,0,0,1,2.84,2.05,9.05,9.05,0,0,1,1.65,3.67l.35,1.52-11.18,2.53a6.53,6.53,0,0,0,2.4,4,5.14,5.14,0,0,0,4.21.62,12.81,12.81,0,0,0,2.65-.9,16.41,16.41,0,0,0,2.27-1.38l.48,2.15a12,12,0,0,1-2.25,1.35,14.42,14.42,0,0,1-2.78.9,8.46,8.46,0,0,1-4.28,0,6.65,6.65,0,0,1-3.33-2.18,10,10,0,0,1-2-4.31,11,11,0,0,1-.14-4.72,6.88,6.88,0,0,1,1.81-3.51A7,7,0,0,1,602.64,471.68Zm.42,2a4.15,4.15,0,0,0-2.84,2,6.25,6.25,0,0,0-.57,3.91l8.56-1.94a7.21,7.21,0,0,0-1-2.45,3.73,3.73,0,0,0-1.71-1.41A4,4,0,0,0,603.06,473.7Z" transform="translate(93 1)"/><path d="M334.54,570.59a6.31,6.31,0,0,1,4.59.32,5.59,5.59,0,0,1,2.34,3.84l2.49,11-1.78.4-1-2.28-.12,0A8.1,8.1,0,0,1,340,585.7a5.23,5.23,0,0,1-1.5,1.29,8.69,8.69,0,0,1-2.3.84,6.54,6.54,0,0,1-2.74.07,4.15,4.15,0,0,1-2.15-1.15,5,5,0,0,1-1.26-2.52,4.32,4.32,0,0,1,1.07-4.15,11.44,11.44,0,0,1,5.53-2.74l2.76-.75-.22-1a4,4,0,0,0-1.57-2.74,3.67,3.67,0,0,0-2.73-.26,8,8,0,0,0-2.33.91,16.23,16.23,0,0,0-2,1.37l-1.18-1.69a13.91,13.91,0,0,1,2.3-1.53A11.33,11.33,0,0,1,334.54,570.59Zm5.2,7.73-2.45.66a8.56,8.56,0,0,0-4,2,2.9,2.9,0,0,0-.68,2.75,2.51,2.51,0,0,0,1.31,1.86,3.55,3.55,0,0,0,2.38.16,5.3,5.3,0,0,0,3.25-2,4.57,4.57,0,0,0,.56-3.9Z" transform="translate(93 1)"/><path d="M351.48,584l-2.47.56-5.2-23,2.47-.56Z" transform="translate(93 1)"/><path d="M360.62,567l-4,.91,3.23,14.27-2.45.55-3.23-14.26-2.86.64-.27-1.18,2.68-1.46-.24-1.08a8,8,0,0,1-.15-3.45,4.12,4.12,0,0,1,1.33-2.28,6.13,6.13,0,0,1,2.67-1.24,8.63,8.63,0,0,1,1.74-.22,10.79,10.79,0,0,1,1.45.06l-.2,2.07c-.35,0-.75,0-1.19,0a5.79,5.79,0,0,0-1.31.15,2.47,2.47,0,0,0-1.87,1.37,5,5,0,0,0,0,3l.27,1.18,4-.91Z" transform="translate(93 1)"/><path d="M369.15,562.75a6.25,6.25,0,0,1,4.59.33,5.54,5.54,0,0,1,2.34,3.83l2.5,11-1.79.4-1-2.28-.12,0a8.93,8.93,0,0,1-1.08,1.81,5.41,5.41,0,0,1-1.51,1.29,8.69,8.69,0,0,1-2.3.84,6.54,6.54,0,0,1-2.74.07,4.19,4.19,0,0,1-2.15-1.15,5,5,0,0,1-1.26-2.51,4.31,4.31,0,0,1,1.08-4.16,11.35,11.35,0,0,1,5.52-2.74l2.77-.75-.23-1A4,4,0,0,0,372.2,565a3.69,3.69,0,0,0-2.73-.26,8,8,0,0,0-2.34.92,17,17,0,0,0-2,1.36L364,565.35a13.4,13.4,0,0,1,2.29-1.53A11.33,11.33,0,0,1,369.15,562.75Zm5.2,7.73-2.44.66a8.6,8.6,0,0,0-4.05,2,2.93,2.93,0,0,0-.68,2.75,2.54,2.54,0,0,0,1.31,1.86,3.55,3.55,0,0,0,2.38.16,5.32,5.32,0,0,0,3.26-2,4.63,4.63,0,0,0,.56-3.9Z" transform="translate(93 1)"/><path d="M380.87,553.23l1.31,5.75c.15.66.27,1.3.38,1.93s.19,1.11.25,1.46l.13,0a5.66,5.66,0,0,1,1.5-2.28,6.34,6.34,0,0,1,3-1.48,6.23,6.23,0,0,1,5.33,1q2.28,1.7,3.23,5.84a11.72,11.72,0,0,1,.21,4.8,6.41,6.41,0,0,1-1.69,3.36,6.62,6.62,0,0,1-3.34,1.77,6.29,6.29,0,0,1-3.32,0A5.56,5.56,0,0,1,385.6,574l-.19.05v2.28l-1.77.4-5.21-23Zm6.67,7.5A5.13,5.13,0,0,0,384.9,562a3.93,3.93,0,0,0-1,2.41,11.72,11.72,0,0,0,.34,3.59l0,.14a9,9,0,0,0,2.08,4.44q1.38,1.38,4.07.78a3.92,3.92,0,0,0,3-2.43,10.72,10.72,0,0,0-2.12-9.43A4,4,0,0,0,387.54,560.73Z" transform="translate(93 1)"/><path d="M404.63,554.68a6.75,6.75,0,0,1,3.75.12,6,6,0,0,1,2.84,2.05,9.05,9.05,0,0,1,1.65,3.67l.35,1.52L402,564.57a6.53,6.53,0,0,0,2.4,4,5.1,5.1,0,0,0,4.21.61,12.45,12.45,0,0,0,2.65-.89,15.76,15.76,0,0,0,2.26-1.38l.49,2.15a12,12,0,0,1-2.25,1.35,13.8,13.8,0,0,1-2.78.89,8.4,8.4,0,0,1-4.29,0,6.62,6.62,0,0,1-3.32-2.19,9.93,9.93,0,0,1-2-4.3,11,11,0,0,1-.14-4.72,6.88,6.88,0,0,1,1.81-3.51A7,7,0,0,1,404.63,554.68Zm.42,2a4.12,4.12,0,0,0-2.84,2,6.22,6.22,0,0,0-.57,3.9l8.56-1.94a7.24,7.24,0,0,0-1-2.44,3.73,3.73,0,0,0-1.71-1.41A4,4,0,0,0,405.05,556.7Z" transform="translate(93 1)"/><path d="M424,565.83a8.53,8.53,0,0,0,1.22-.38,5.76,5.76,0,0,0,1-.49l.44,1.91a5.37,5.37,0,0,1-1.12.59,9.4,9.4,0,0,1-1.45.47,6.13,6.13,0,0,1-2.44.08,3.62,3.62,0,0,1-2-1.15,6.06,6.06,0,0,1-1.3-2.84l-2.18-9.6-2.3.52-.27-1.2,2.1-1.48.18-3.73,1.47-.34.85,3.75,4.74-1.07.44,1.92-4.74,1.07,2.16,9.52a3.28,3.28,0,0,0,1.21,2.12A2.47,2.47,0,0,0,424,565.83Z" transform="translate(93 1)"/><path d="M426.11,543.76a1.53,1.53,0,0,1,1.13.16A1.57,1.57,0,0,1,428,545a1.61,1.61,0,0,1-.16,1.31,1.53,1.53,0,0,1-1,.63,1.47,1.47,0,0,1-1.15-.16,1.61,1.61,0,0,1-.69-1.11,1.64,1.64,0,0,1,.14-1.32A1.57,1.57,0,0,1,426.11,543.76Zm2.57,5.79,3.66,16.18-2.45.56-3.66-16.19Z" transform="translate(93 1)"/><path d="M447.92,562.2l-11.8,2.67-.37-1.62,6-14.65-8.32,1.88-.43-1.92,11-2.5.41,1.82-5.93,14.44,8.95-2Z" transform="translate(93 1)"/><path d="M454,543.53a6.31,6.31,0,0,1,4.59.32,5.57,5.57,0,0,1,2.34,3.83l2.49,11-1.78.41-1-2.29-.11,0a9,9,0,0,1-1.09,1.81,5.2,5.2,0,0,1-1.5,1.28,8,8,0,0,1-2.3.84,6.39,6.39,0,0,1-2.74.08,4.09,4.09,0,0,1-2.15-1.16,5,5,0,0,1-1.26-2.51,4.31,4.31,0,0,1,1.07-4.15,11.53,11.53,0,0,1,5.53-2.75l2.77-.75-.23-1a4.07,4.07,0,0,0-1.56-2.73,3.75,3.75,0,0,0-2.74-.27,8,8,0,0,0-2.33.92,16.23,16.23,0,0,0-2,1.37l-1.18-1.69a13.91,13.91,0,0,1,2.3-1.53A11,11,0,0,1,454,543.53Zm5.2,7.73-2.45.66a8.56,8.56,0,0,0-4,2,2.91,2.91,0,0,0-.68,2.74,2.48,2.48,0,0,0,1.31,1.86,3.55,3.55,0,0,0,2.38.16,5.29,5.29,0,0,0,3.25-2,4.58,4.58,0,0,0,.56-3.9Z" transform="translate(93 1)"/><path d="M475.05,556.37a8.14,8.14,0,0,1-4.05,0,6.3,6.3,0,0,1-3.22-2.16,12.47,12.47,0,0,1-2.1-9.47,6.55,6.55,0,0,1,2.09-3.38,8.51,8.51,0,0,1,3.72-1.79,11.74,11.74,0,0,1,2.4-.29,7.63,7.63,0,0,1,2,.2l-.27,2.22a12.31,12.31,0,0,0-1.83-.15,8.29,8.29,0,0,0-1.86.17,5.23,5.23,0,0,0-2.64,1.36,4.44,4.44,0,0,0-1.18,2.5,11.06,11.06,0,0,0,1.52,6.82,4.59,4.59,0,0,0,2.09,1.75,4.76,4.76,0,0,0,2.85.13,9.87,9.87,0,0,0,2.25-.8,13.21,13.21,0,0,0,1.73-1.07l.5,2.18a7.91,7.91,0,0,1-1.67,1.05A11.27,11.27,0,0,1,475.05,556.37Z" transform="translate(93 1)"/><path d="M479.21,531.74a1.58,1.58,0,0,1,1.13.15,1.59,1.59,0,0,1,.71,1.12,1.61,1.61,0,0,1-.16,1.31,1.58,1.58,0,0,1-.95.64,1.55,1.55,0,0,1-1.15-.16,1.66,1.66,0,0,1-.69-1.12,1.61,1.61,0,0,1,.14-1.31A1.49,1.49,0,0,1,479.21,531.74Zm2.57,5.78,3.66,16.18-2.45.56-3.66-16.18Z" transform="translate(93 1)"/><path d="M502.74,541.25a11.57,11.57,0,0,1,.29,3.67,7.69,7.69,0,0,1-.89,3,6.55,6.55,0,0,1-2,2.17,8.21,8.21,0,0,1-3,1.28,7.78,7.78,0,0,1-3.1.11,6.82,6.82,0,0,1-2.71-1.12,7.73,7.73,0,0,1-2.12-2.3,11.29,11.29,0,0,1-1.35-3.44,10.6,10.6,0,0,1-.12-4.73,6.63,6.63,0,0,1,1.93-3.43,8,8,0,0,1,3.77-1.89,7.75,7.75,0,0,1,4.1.11,6.78,6.78,0,0,1,3.23,2.28A10.31,10.31,0,0,1,502.74,541.25ZM490.42,544a10.28,10.28,0,0,0,1.29,3.26,4.69,4.69,0,0,0,2.09,1.86,4.79,4.79,0,0,0,3,.15,4.38,4.38,0,0,0,3.69-4,10.3,10.3,0,0,0-.25-3.5,10,10,0,0,0-1.27-3.22,4.6,4.6,0,0,0-2.09-1.82,4.82,4.82,0,0,0-3-.14,4.32,4.32,0,0,0-3.32,2.51A8.18,8.18,0,0,0,490.42,544Zm5.77-17.13.06.3a13.22,13.22,0,0,1-.57,1.21c-.25.47-.53,1-.84,1.51s-.64,1-1,1.53-.64.92-.93,1.28l-1.64.37-.08-.35c.23-.45.48-1,.73-1.59s.5-1.23.73-1.87.4-1.21.54-1.72Z" transform="translate(93 1)"/><path d="M512.75,530.2a6.18,6.18,0,0,1,4.67.42c1.2.72,2,2.11,2.51,4.19l2.38,10.54-2.42.55-2.35-10.38a4.42,4.42,0,0,0-1.61-2.82,3.73,3.73,0,0,0-3-.36,4.44,4.44,0,0,0-3.44,2.38,7.67,7.67,0,0,0-.09,4.66l1.92,8.47-2.45.56-3.67-16.18,2-.45L508,534l.13,0a5.18,5.18,0,0,1,1-1.74,5.92,5.92,0,0,1,1.59-1.29A7,7,0,0,1,512.75,530.2Z" transform="translate(93 1)"/><path d="M537.72,524.54a6.75,6.75,0,0,1,3.75.11,6.11,6.11,0,0,1,2.84,2.05,9.12,9.12,0,0,1,1.65,3.67l.35,1.52-11.18,2.53a6.53,6.53,0,0,0,2.4,4,5.14,5.14,0,0,0,4.21.61,11.9,11.9,0,0,0,2.65-.9,14.14,14.14,0,0,0,2.26-1.38l.49,2.16a12,12,0,0,1-2.25,1.35,15.2,15.2,0,0,1-2.78.89,8.62,8.62,0,0,1-4.29,0A6.62,6.62,0,0,1,534.5,539a10,10,0,0,1-2-4.3,11.07,11.07,0,0,1-.14-4.73,6.89,6.89,0,0,1,1.81-3.5A7,7,0,0,1,537.72,524.54Zm.42,2a4.16,4.16,0,0,0-2.84,2,6.22,6.22,0,0,0-.57,3.9l8.56-1.94a7.35,7.35,0,0,0-1-2.44,3.82,3.82,0,0,0-1.71-1.42A4.07,4.07,0,0,0,538.14,526.55Z" transform="translate(93 1)"/><path d="M556.13,520.37a6.21,6.21,0,0,1,4.68.42c1.19.72,2,2.12,2.5,4.19l2.39,10.55-2.42.55-2.36-10.39a4.45,4.45,0,0,0-1.6-2.81,3.8,3.8,0,0,0-3.06-.37c-1.79.41-2.94,1.2-3.43,2.38a7.73,7.73,0,0,0-.1,4.66l1.92,8.48-2.45.55-3.66-16.18,2-.45.9,2.25.13,0a5.18,5.18,0,0,1,1-1.74,6.08,6.08,0,0,1,1.59-1.29A7,7,0,0,1,556.13,520.37Z" transform="translate(93 1)"/><path d="M581.1,514.71a6.75,6.75,0,0,1,3.75.12,6,6,0,0,1,2.84,2,9.06,9.06,0,0,1,1.66,3.67l.34,1.52-11.18,2.53a6.49,6.49,0,0,0,2.41,4,5.08,5.08,0,0,0,4.2.61,12.08,12.08,0,0,0,2.65-.89A16.41,16.41,0,0,0,590,527l.49,2.15a12.65,12.65,0,0,1-2.25,1.35,14.12,14.12,0,0,1-2.79.89,8.36,8.36,0,0,1-4.28,0,6.73,6.73,0,0,1-3.33-2.18,9.91,9.91,0,0,1-2-4.31,10.88,10.88,0,0,1-.15-4.72,7,7,0,0,1,1.81-3.51A7.07,7.07,0,0,1,581.1,514.71Zm.43,2a4.1,4.1,0,0,0-2.84,2,6.16,6.16,0,0,0-.58,3.9l8.57-1.93a7.21,7.21,0,0,0-1-2.45,3.73,3.73,0,0,0-1.71-1.41A4,4,0,0,0,581.53,516.73Z" transform="translate(93 1)"/><path d="M598.05,528.2l-2.47.56-5.2-23,2.47-.56Z" transform="translate(93 1)"/><path d="M315.11,613.11a5.57,5.57,0,0,1,4.35.48q1.67,1.1,2.37,4.18l2.4,10.6-2.42.55-2.38-10.49a4.5,4.5,0,0,0-1.51-2.75,3.23,3.23,0,0,0-2.74-.41,4.16,4.16,0,0,0-3.11,2.13,6.58,6.58,0,0,0-.15,4.24l2.05,9.05-2.44.56-2.37-10.49a5.52,5.52,0,0,0-.88-2.1,2.78,2.78,0,0,0-1.41-1,3.81,3.81,0,0,0-2,0,4.61,4.61,0,0,0-2.43,1.25,3.77,3.77,0,0,0-1,2.29,10.23,10.23,0,0,0,.29,3.31l1.94,8.56-2.45.56-3.67-16.18,2-.45.89,2.2.13,0a4.93,4.93,0,0,1,.91-1.69,5.46,5.46,0,0,1,1.45-1.25,6.89,6.89,0,0,1,1.88-.74,6.6,6.6,0,0,1,3.25,0,4.11,4.11,0,0,1,2.29,1.68l.13,0a5.17,5.17,0,0,1,1.71-2.58A6.88,6.88,0,0,1,315.11,613.11Z" transform="translate(93 1)"/><path d="M339,608l3.67,16.18-2,.46-.87-2.2-.13,0a5,5,0,0,1-1,1.72,6.1,6.1,0,0,1-1.6,1.27,7.82,7.82,0,0,1-2.05.76,7.6,7.6,0,0,1-3.36.11,4.27,4.27,0,0,1-2.39-1.47,7.61,7.61,0,0,1-1.42-3.19l-2.4-10.61,2.48-.56L330.26,621a4.47,4.47,0,0,0,1.6,2.81,3.67,3.67,0,0,0,3,.36,5.39,5.39,0,0,0,2.72-1.33,3.89,3.89,0,0,0,1.09-2.34,10.07,10.07,0,0,0-.26-3.35l-1.93-8.52Z" transform="translate(93 1)"/><path d="M351.74,604.81a6.25,6.25,0,0,1,4.68.43q1.8,1.07,2.5,4.19L361.31,620l-2.42.55-2.35-10.38a4.51,4.51,0,0,0-1.61-2.82,3.76,3.76,0,0,0-3.06-.36,4.45,4.45,0,0,0-3.43,2.37,7.77,7.77,0,0,0-.1,4.67l1.92,8.47-2.45.56-3.66-16.19,2-.44.9,2.24.14,0a5,5,0,0,1,1-1.73,6.25,6.25,0,0,1,1.59-1.29A7.37,7.37,0,0,1,351.74,604.81Z" transform="translate(93 1)"/><path d="M372.18,617.82a6.24,6.24,0,0,1-5.34-1c-1.51-1.12-2.58-3.07-3.2-5.82s-.5-5,.4-6.73a6.26,6.26,0,0,1,4.39-3.24,6.76,6.76,0,0,1,2.32-.16,5.44,5.44,0,0,1,1.86.53,5.66,5.66,0,0,1,1.46,1l.18,0c-.11-.3-.25-.71-.41-1.23s-.27-.95-.35-1.29L372,593.39l2.45-.56,5.21,23-2,.45-.89-2.22-.1,0a6,6,0,0,1-.87,1.58,5.45,5.45,0,0,1-1.45,1.32A7.23,7.23,0,0,1,372.18,617.82Zm-.07-2.13a4.36,4.36,0,0,0,3.34-2.31,7.56,7.56,0,0,0,.08-4.63l-.1-.44a9.17,9.17,0,0,0-2.1-4.51q-1.4-1.41-4.1-.81a3.87,3.87,0,0,0-3,2.51,8.91,8.91,0,0,0-.05,5,8.31,8.31,0,0,0,2.16,4.36A3.93,3.93,0,0,0,372.11,615.69Z" transform="translate(93 1)"/><path d="M397,603.36a11.84,11.84,0,0,1,.29,3.67,7.43,7.43,0,0,1-.9,3,6.55,6.55,0,0,1-2,2.18,8.38,8.38,0,0,1-3,1.28,7.82,7.82,0,0,1-3.11.1,6.76,6.76,0,0,1-2.7-1.11,7.72,7.72,0,0,1-2.12-2.3,11.14,11.14,0,0,1-1.35-3.44A10.6,10.6,0,0,1,382,602a6.59,6.59,0,0,1,1.93-3.43,7.92,7.92,0,0,1,3.77-1.89,7.55,7.55,0,0,1,4.1.11,6.88,6.88,0,0,1,3.23,2.27A10.35,10.35,0,0,1,397,603.36Zm-12.32,2.78a10.43,10.43,0,0,0,1.28,3.27,4.64,4.64,0,0,0,2.1,1.85,4.75,4.75,0,0,0,2.95.16,4.82,4.82,0,0,0,2.6-1.41,4.74,4.74,0,0,0,1.1-2.58,10.56,10.56,0,0,0-.25-3.5,10.09,10.09,0,0,0-1.28-3.23,4.66,4.66,0,0,0-2.09-1.82,4.86,4.86,0,0,0-3-.13,4.32,4.32,0,0,0-3.32,2.51A8.08,8.08,0,0,0,384.66,606.14Z" transform="translate(93 1)"/><path d="M413.41,590.85a6.66,6.66,0,0,1,3.75.11,6.11,6.11,0,0,1,2.84,2,9.05,9.05,0,0,1,1.65,3.67l.35,1.52-11.18,2.53a6.53,6.53,0,0,0,2.4,4,5.1,5.1,0,0,0,4.21.62,11.9,11.9,0,0,0,2.65-.9,14.91,14.91,0,0,0,2.26-1.38l.49,2.15a12,12,0,0,1-2.25,1.35,14.42,14.42,0,0,1-2.78.9,8.62,8.62,0,0,1-4.29,0,6.75,6.75,0,0,1-3.32-2.19,10,10,0,0,1-2-4.3,11.07,11.07,0,0,1-.14-4.73,6.69,6.69,0,0,1,5.35-5.39Zm.42,2a4.13,4.13,0,0,0-2.84,2,6.22,6.22,0,0,0-.57,3.9l8.56-1.94a7.5,7.5,0,0,0-1-2.45,3.79,3.79,0,0,0-1.71-1.41A4,4,0,0,0,413.83,592.86Z" transform="translate(93 1)"/><path d="M437.36,598.09a4.4,4.4,0,0,1-.19,2.78,4.77,4.77,0,0,1-1.85,2.09,10.23,10.23,0,0,1-3.32,1.31,14.27,14.27,0,0,1-3,.4,9,9,0,0,1-2.34-.26l-.51-2.26a15.67,15.67,0,0,0,2.57.35,10,10,0,0,0,2.89-.24,5.44,5.44,0,0,0,2.89-1.36,2.24,2.24,0,0,0,.53-2.07,2,2,0,0,0-.65-1.08,3.78,3.78,0,0,0-1.48-.71,21.67,21.67,0,0,0-2.69-.5,29,29,0,0,1-2.95-.56,5,5,0,0,1-2.06-1,4,4,0,0,1-.16-5.57,8,8,0,0,1,4.11-2.09A12.7,12.7,0,0,1,432,587a14,14,0,0,1,2.56.23l-.38,2.16a14.1,14.1,0,0,0-2.3-.24,9.15,9.15,0,0,0-2.39.23,5.08,5.08,0,0,0-2.48,1.15,1.78,1.78,0,0,0-.56,1.74,1.91,1.91,0,0,0,.7,1.14,4.09,4.09,0,0,0,1.56.61c.69.15,1.58.3,2.68.45a20.52,20.52,0,0,1,2.89.57,5,5,0,0,1,2,1.06A3.79,3.79,0,0,1,437.36,598.09Z" transform="translate(93 1)"/><path d="M456,598.84a6.24,6.24,0,0,1-5.34-1q-2.26-1.68-3.2-5.82t.4-6.73a6.26,6.26,0,0,1,4.39-3.24,6.76,6.76,0,0,1,2.32-.16,5.44,5.44,0,0,1,1.86.53,5.66,5.66,0,0,1,1.46,1l.18,0c-.11-.3-.25-.71-.41-1.23s-.27-.95-.35-1.29l-1.47-6.48,2.45-.56,5.21,23-2,.45-.89-2.22-.11,0a5.69,5.69,0,0,1-.86,1.58,5.26,5.26,0,0,1-1.45,1.31A7,7,0,0,1,456,598.84Zm-.07-2.13a4.36,4.36,0,0,0,3.34-2.31,7.61,7.61,0,0,0,.08-4.62l-.1-.45a9.09,9.09,0,0,0-2.1-4.5q-1.39-1.43-4.1-.81a3.84,3.84,0,0,0-3,2.5,8.91,8.91,0,0,0-.05,5,8.31,8.31,0,0,0,2.16,4.36A3.93,3.93,0,0,0,455.91,596.71Z" transform="translate(93 1)"/><path d="M471.16,577.77a6.66,6.66,0,0,1,3.75.11,6.11,6.11,0,0,1,2.84,2,9.05,9.05,0,0,1,1.65,3.67l.35,1.52-11.18,2.53a6.53,6.53,0,0,0,2.4,4,5.1,5.1,0,0,0,4.21.62,11.73,11.73,0,0,0,2.65-.9A15.49,15.49,0,0,0,480.1,590l.48,2.15a12.24,12.24,0,0,1-2.24,1.35,14.78,14.78,0,0,1-2.79.9,8.58,8.58,0,0,1-4.28,0,6.77,6.77,0,0,1-3.33-2.19,10,10,0,0,1-2-4.3,11.07,11.07,0,0,1-.14-4.73,6.69,6.69,0,0,1,5.35-5.39Zm.43,2a4.11,4.11,0,0,0-2.84,2,6.15,6.15,0,0,0-.58,3.9l8.57-1.94a7.51,7.51,0,0,0-1-2.45,3.73,3.73,0,0,0-1.71-1.41A4,4,0,0,0,471.59,579.78Z" transform="translate(93 1)"/><path d="M495.11,585a4.4,4.4,0,0,1-.19,2.78,4.71,4.71,0,0,1-1.85,2.09,10.26,10.26,0,0,1-3.31,1.31,14.44,14.44,0,0,1-3,.4,8.87,8.87,0,0,1-2.34-.26l-.52-2.26a15.82,15.82,0,0,0,2.57.35,10,10,0,0,0,2.89-.24,5.44,5.44,0,0,0,2.89-1.36,2.24,2.24,0,0,0,.53-2.07,2,2,0,0,0-.64-1.08,3.9,3.9,0,0,0-1.49-.71,21.31,21.31,0,0,0-2.69-.5,29.54,29.54,0,0,1-2.95-.56,5,5,0,0,1-2.06-1,4,4,0,0,1-.16-5.57,8,8,0,0,1,4.11-2.09,12.79,12.79,0,0,1,2.81-.33,14.17,14.17,0,0,1,2.56.23l-.39,2.16a14.1,14.1,0,0,0-2.3-.24,9.19,9.19,0,0,0-2.39.23,5.12,5.12,0,0,0-2.48,1.15,1.78,1.78,0,0,0-.56,1.74,1.88,1.88,0,0,0,.71,1.14,4,4,0,0,0,1.55.61c.69.15,1.58.3,2.68.45a20.24,20.24,0,0,1,2.89.57,5,5,0,0,1,2,1.06A3.79,3.79,0,0,1,495.11,585Z" transform="translate(93 1)"/><path d="M496.27,566a1.52,1.52,0,0,1,1.13.16,1.59,1.59,0,0,1,.71,1.12,1.58,1.58,0,0,1-.16,1.31,1.5,1.5,0,0,1-.95.63,1.45,1.45,0,0,1-1.14-.16,1.59,1.59,0,0,1-.7-1.11,1.6,1.6,0,0,1,.15-1.31A1.52,1.52,0,0,1,496.27,566Zm2.57,5.79L502.51,588l-2.46.56-3.66-16.19Z" transform="translate(93 1)"/><path d="M513.85,593.06a8.76,8.76,0,0,1-5.18-.08,3.91,3.91,0,0,1-2.49-2.93,3.86,3.86,0,0,1,.38-2.82,4.84,4.84,0,0,1,2.36-2,3,3,0,0,1-1.29-.64,2.29,2.29,0,0,1-.76-1.26,2.64,2.64,0,0,1,.15-1.67,5.08,5.08,0,0,1,1.22-1.63,4.47,4.47,0,0,1-2.46-1.29,5.37,5.37,0,0,1-1.44-2.69,5.92,5.92,0,0,1,.05-3.14,4.82,4.82,0,0,1,1.67-2.36,8,8,0,0,1,3.18-1.4l.87-.16a8.6,8.6,0,0,1,.86-.08,4.44,4.44,0,0,1,.73,0l5.55-1.26.36,1.58-2.9,1a5.54,5.54,0,0,1,1,1.22,5.43,5.43,0,0,1,.7,1.74,5,5,0,0,1-.77,4.22,6.8,6.8,0,0,1-4.18,2.44,9,9,0,0,1-1.41.2,3.6,3.6,0,0,0-.9,1.13,1.8,1.8,0,0,0-.12,1.21,1.06,1.06,0,0,0,.45.69,1.83,1.83,0,0,0,.93.21,5.9,5.9,0,0,0,1.34-.17l2.85-.64a6.58,6.58,0,0,1,4.31.19,3.93,3.93,0,0,1,2.14,2.91,4.75,4.75,0,0,1-1.25,4.62A11.85,11.85,0,0,1,513.85,593.06Zm-2.65-15a3.68,3.68,0,0,0,2.44-1.48,3.55,3.55,0,0,0,.3-2.78,3.79,3.79,0,0,0-1.52-2.53,3.69,3.69,0,0,0-2.86-.3,3.52,3.52,0,0,0-2.38,1.52,3.92,3.92,0,0,0-.29,2.95,3.47,3.47,0,0,0,1.49,2.33A3.71,3.71,0,0,0,511.2,578Zm2.29,13.08a11.73,11.73,0,0,0,3.24-1.16,4.25,4.25,0,0,0,1.71-1.61,2.71,2.71,0,0,0,.25-2,2.23,2.23,0,0,0-.77-1.37,2.41,2.41,0,0,0-1.45-.37,11.46,11.46,0,0,0-2.14.31l-2.81.63a5.13,5.13,0,0,0-1.82.77,2.76,2.76,0,0,0-1,1.29,3,3,0,0,0-.06,1.75,2.24,2.24,0,0,0,1.56,1.75A6.16,6.16,0,0,0,513.49,591.12Z" transform="translate(93 1)"/><path d="M533.81,563.89l3.66,16.18-2,.46-.86-2.2-.14,0a4.84,4.84,0,0,1-1,1.72,6.05,6.05,0,0,1-1.59,1.27,8,8,0,0,1-2.06.76,7.6,7.6,0,0,1-3.36.11,4.27,4.27,0,0,1-2.39-1.47,7.67,7.67,0,0,1-1.41-3.19l-2.4-10.6,2.48-.57,2.36,10.43a4.43,4.43,0,0,0,1.6,2.81,3.68,3.68,0,0,0,3,.37,5.51,5.51,0,0,0,2.72-1.33,3.88,3.88,0,0,0,1.09-2.35,9.81,9.81,0,0,0-.26-3.35l-1.93-8.52Z" transform="translate(93 1)"/><path d="M545,561.08a6.34,6.34,0,0,1,4.6.32,5.59,5.59,0,0,1,2.34,3.84l2.49,11-1.79.4-1-2.28-.12,0a8.93,8.93,0,0,1-1.08,1.81,5,5,0,0,1-1.5,1.28,8.16,8.16,0,0,1-2.3.84,6.4,6.4,0,0,1-2.74.08,4.16,4.16,0,0,1-2.16-1.16,5.13,5.13,0,0,1-1.26-2.51,4.34,4.34,0,0,1,1.08-4.15,11.39,11.39,0,0,1,5.53-2.74l2.76-.75-.22-1a4,4,0,0,0-1.57-2.74,3.69,3.69,0,0,0-2.73-.26A8,8,0,0,0,543,564a17.92,17.92,0,0,0-2,1.37l-1.17-1.69a13.81,13.81,0,0,1,2.29-1.53A11.1,11.1,0,0,1,545,561.08Zm5.2,7.73-2.44.66a8.51,8.51,0,0,0-4,2,2.89,2.89,0,0,0-.69,2.74,2.54,2.54,0,0,0,1.31,1.87,3.62,3.62,0,0,0,2.38.16,5.32,5.32,0,0,0,3.26-2,4.63,4.63,0,0,0,.56-3.9Z" transform="translate(93 1)"/><path d="M561.93,574.53l-2.47.56-5.2-23,2.46-.56Z" transform="translate(93 1)"/><path d="M577.45,553.69a6.75,6.75,0,0,1,3.75.12,6,6,0,0,1,2.84,2.05,9.05,9.05,0,0,1,1.65,3.67l.35,1.52-11.18,2.53a6.53,6.53,0,0,0,2.4,4,5.1,5.1,0,0,0,4.21.61,12.26,12.26,0,0,0,2.65-.89,16.41,16.41,0,0,0,2.27-1.38l.48,2.15a12,12,0,0,1-2.25,1.35,13.8,13.8,0,0,1-2.78.89,8.36,8.36,0,0,1-4.28,0,6.69,6.69,0,0,1-3.33-2.18,10,10,0,0,1-2-4.31,11,11,0,0,1-.14-4.72,6.88,6.88,0,0,1,1.81-3.51A7,7,0,0,1,577.45,553.69Zm.43,2a4.1,4.1,0,0,0-2.84,2,6.18,6.18,0,0,0-.58,3.91l8.56-1.94a7.21,7.21,0,0,0-1-2.45,3.73,3.73,0,0,0-1.71-1.41A4,4,0,0,0,577.88,555.71Z" transform="translate(93 1)"/><path d="M595.86,549.52a6.25,6.25,0,0,1,4.68.43q1.8,1.06,2.5,4.19l2.39,10.54-2.42.55-2.35-10.38a4.51,4.51,0,0,0-1.61-2.82,3.76,3.76,0,0,0-3.06-.36,4.45,4.45,0,0,0-3.43,2.37,7.77,7.77,0,0,0-.1,4.67l1.92,8.47-2.45.56-3.66-16.19,2-.44.89,2.24.14,0a5,5,0,0,1,1-1.73,6.25,6.25,0,0,1,1.59-1.29A7.37,7.37,0,0,1,595.86,549.52Z" transform="translate(93 1)"/><path d="M615.32,560.64a8.53,8.53,0,0,0,1.22-.38,6.17,6.17,0,0,0,1-.49l.43,1.9a4.6,4.6,0,0,1-1.11.6,9.17,9.17,0,0,1-1.46.47,6.08,6.08,0,0,1-2.43.08,3.62,3.62,0,0,1-2-1.15,6.16,6.16,0,0,1-1.31-2.84l-2.17-9.6-2.3.52-.27-1.2,2.1-1.48.18-3.74,1.47-.33.85,3.75,4.74-1.07.44,1.92-4.74,1.07,2.15,9.53a3.33,3.33,0,0,0,1.22,2.11A2.47,2.47,0,0,0,615.32,560.64Z" transform="translate(93 1)"/><path d="M624.88,543c.32-.07.67-.13,1-.18a9.19,9.19,0,0,1,1-.07l.2,2.34a7.47,7.47,0,0,0-.92,0,8.22,8.22,0,0,0-.93.15,4.6,4.6,0,0,0-1.75.81,4.55,4.55,0,0,0-1.26,1.46,5.53,5.53,0,0,0-.62,2,6.85,6.85,0,0,0,.15,2.36l2,8.69-2.46.56-3.67-16.19,2-.46.94,2.92.11,0a7.8,7.8,0,0,1,.83-1.92,5.42,5.42,0,0,1,1.38-1.56A4.87,4.87,0,0,1,624.88,543Z" transform="translate(93 1)"/><path d="M636.12,540.41a6.66,6.66,0,0,1,3.75.11,6.11,6.11,0,0,1,2.84,2.05,9.05,9.05,0,0,1,1.65,3.67l.35,1.52-11.18,2.53a6.53,6.53,0,0,0,2.4,4,5.14,5.14,0,0,0,4.21.62,11.9,11.9,0,0,0,2.65-.9,15.42,15.42,0,0,0,2.26-1.38l.49,2.15a12,12,0,0,1-2.25,1.35,14.42,14.42,0,0,1-2.78.9,8.62,8.62,0,0,1-4.29,0,6.82,6.82,0,0,1-3.33-2.19,10,10,0,0,1-2-4.3,11.25,11.25,0,0,1-.15-4.73,7,7,0,0,1,1.82-3.51A6.9,6.9,0,0,1,636.12,540.41Zm.42,2a4.15,4.15,0,0,0-2.84,2,6.26,6.26,0,0,0-.57,3.91l8.56-1.94a7.5,7.5,0,0,0-1-2.45,3.73,3.73,0,0,0-1.71-1.41A4,4,0,0,0,636.54,542.42Z" transform="translate(93 1)"/><path d="M338.49,639.14,340,646c.09.4.17.79.24,1.2s.12.77.15,1.12l.16,0a5.16,5.16,0,0,1,1-1.72,5.68,5.68,0,0,1,1.57-1.29,7.38,7.38,0,0,1,2-.78,7.91,7.91,0,0,1,3.39-.12,4.22,4.22,0,0,1,2.4,1.48,7.57,7.57,0,0,1,1.42,3.22l2.39,10.54-2.42.55L350,649.78a4.51,4.51,0,0,0-1.61-2.82,3.76,3.76,0,0,0-3.06-.36,5.35,5.35,0,0,0-2.71,1.33,3.9,3.9,0,0,0-1.08,2.37,10.12,10.12,0,0,0,.27,3.35l1.91,8.46-2.45.56-5.2-23Z" transform="translate(93 1)"/><path d="M371.9,647.18a11.34,11.34,0,0,1,.29,3.68,7.43,7.43,0,0,1-.89,3,6.65,6.65,0,0,1-2,2.18,8.43,8.43,0,0,1-3,1.28,7.77,7.77,0,0,1-3.1.1,6.66,6.66,0,0,1-2.71-1.11,8,8,0,0,1-2.12-2.3,11.38,11.38,0,0,1-1.34-3.44,10.76,10.76,0,0,1-.13-4.73,6.6,6.6,0,0,1,1.94-3.43,7.87,7.87,0,0,1,3.77-1.89,7.65,7.65,0,0,1,4.1.11,6.88,6.88,0,0,1,3.23,2.27A10.36,10.36,0,0,1,371.9,647.18ZM359.59,650a10.2,10.2,0,0,0,1.28,3.27,4.64,4.64,0,0,0,2.1,1.85,5.41,5.41,0,0,0,5.54-1.25,4.59,4.59,0,0,0,1.1-2.58,10.05,10.05,0,0,0-.25-3.5,9.86,9.86,0,0,0-1.27-3.23,4.52,4.52,0,0,0-2.09-1.81,4.79,4.79,0,0,0-3-.14,4.3,4.3,0,0,0-3.32,2.51A8.07,8.07,0,0,0,359.59,650Z" transform="translate(93 1)"/><path d="M391.82,633.89a5.48,5.48,0,0,1,4.35.48,6.43,6.43,0,0,1,2.37,4.17l2.4,10.61-2.42.54-2.37-10.48a4.47,4.47,0,0,0-1.52-2.75,3.22,3.22,0,0,0-2.74-.42,4.18,4.18,0,0,0-3.1,2.14,6.5,6.5,0,0,0-.16,4.24l2.05,9.05-2.44.55-2.37-10.48a5.68,5.68,0,0,0-.87-2.1,2.77,2.77,0,0,0-1.42-1.06,3.78,3.78,0,0,0-2,0,4.7,4.7,0,0,0-2.44,1.24,3.89,3.89,0,0,0-1,2.3,10.85,10.85,0,0,0,.29,3.31l1.94,8.56-2.45.56-3.66-16.19,2-.45.89,2.21.14,0a4.79,4.79,0,0,1,.9-1.7,5.31,5.31,0,0,1,1.46-1.24,6.36,6.36,0,0,1,1.88-.74,6.49,6.49,0,0,1,3.25,0,4.12,4.12,0,0,1,2.28,1.68l.13,0a5.2,5.2,0,0,1,1.71-2.59A7.1,7.1,0,0,1,391.82,633.89Z" transform="translate(93 1)"/><path d="M403.23,624.47l1.3,5.75c.15.66.27,1.3.38,1.93s.19,1.12.25,1.46l.13,0a5.8,5.8,0,0,1,1.5-2.28,6.29,6.29,0,0,1,3-1.47,6.22,6.22,0,0,1,5.33,1c1.53,1.13,2.6,3.08,3.23,5.84a11.72,11.72,0,0,1,.21,4.8,6.3,6.3,0,0,1-1.69,3.36,6.62,6.62,0,0,1-3.34,1.77,6.37,6.37,0,0,1-3.31,0,5.71,5.71,0,0,1-2.3-1.32l-.19,0v2.28L406,648l-5.21-23Zm6.66,7.5a5,5,0,0,0-2.63,1.32,3.83,3.83,0,0,0-1,2.4,11.7,11.7,0,0,0,.34,3.59l0,.14a9,9,0,0,0,2.08,4.44c.92.93,2.28,1.18,4.07.78a3.91,3.91,0,0,0,3-2.42,8.47,8.47,0,0,0,.06-5,8.35,8.35,0,0,0-2.18-4.45A4,4,0,0,0,409.89,632Z" transform="translate(93 1)"/><path d="M428.1,625.67c.33-.07.67-.13,1-.18a9.38,9.38,0,0,1,1-.07l.2,2.34a7.55,7.55,0,0,0-.92,0,6.45,6.45,0,0,0-.93.15,4.32,4.32,0,0,0-1.75.81,4.69,4.69,0,0,0-1.26,1.46,5.53,5.53,0,0,0-.62,2,6.85,6.85,0,0,0,.15,2.36l2,8.69-2.47.56-3.66-16.19,2-.46.95,2.92.1,0a8.23,8.23,0,0,1,.84-1.92,5.54,5.54,0,0,1,1.37-1.56A4.87,4.87,0,0,1,428.1,625.67Z" transform="translate(93 1)"/><path d="M439.34,623.12a6.75,6.75,0,0,1,3.75.12,6.11,6.11,0,0,1,2.84,2,9.05,9.05,0,0,1,1.65,3.67l.35,1.52L436.75,633a6.53,6.53,0,0,0,2.4,4,5.14,5.14,0,0,0,4.21.62,12.25,12.25,0,0,0,2.65-.9,16.41,16.41,0,0,0,2.27-1.38l.48,2.15a12.24,12.24,0,0,1-2.24,1.35,14.78,14.78,0,0,1-2.79.9,8.46,8.46,0,0,1-4.28,0,6.69,6.69,0,0,1-3.33-2.18,10,10,0,0,1-2-4.3,11.07,11.07,0,0,1-.14-4.73A6.88,6.88,0,0,1,435.8,625,7,7,0,0,1,439.34,623.12Zm.43,2a4.13,4.13,0,0,0-2.84,2,6.19,6.19,0,0,0-.58,3.91l8.57-1.94a7.42,7.42,0,0,0-1-2.45,3.73,3.73,0,0,0-1.71-1.41A4,4,0,0,0,439.77,625.14Z" transform="translate(93 1)"/><path d="M463.29,630.37a4.4,4.4,0,0,1-.19,2.78,4.71,4.71,0,0,1-1.85,2.09,10.26,10.26,0,0,1-3.31,1.31,15.15,15.15,0,0,1-3,.4,8.87,8.87,0,0,1-2.34-.26l-.52-2.26a15.82,15.82,0,0,0,2.57.35,10,10,0,0,0,2.89-.24,5.44,5.44,0,0,0,2.89-1.37,2.22,2.22,0,0,0,.53-2.06,2.05,2.05,0,0,0-.64-1.09,4.06,4.06,0,0,0-1.49-.7,21.31,21.31,0,0,0-2.69-.5,26.77,26.77,0,0,1-2.95-.57,4.82,4.82,0,0,1-2.06-1,4,4,0,0,1-.16-5.57,7.93,7.93,0,0,1,4.11-2.09,12.77,12.77,0,0,1,2.8-.33,13.36,13.36,0,0,1,2.57.23l-.39,2.15a16.72,16.72,0,0,0-2.3-.24,10.15,10.15,0,0,0-2.39.23,5.22,5.22,0,0,0-2.48,1.16,1.78,1.78,0,0,0-.56,1.74,1.88,1.88,0,0,0,.71,1.14,4,4,0,0,0,1.55.61c.69.15,1.58.3,2.68.45a20.52,20.52,0,0,1,2.89.57,5,5,0,0,1,2,1.06A3.79,3.79,0,0,1,463.29,630.37Z" transform="translate(93 1)"/><path d="M469.87,616.52l2.63-.6,5.7,8.59c.33.5.64,1,.93,1.45s.56.92.81,1.35.45.86.63,1.27l.1,0c0-.52.08-1.22.15-2.08s.16-1.74.27-2.64l1.26-10.15,2.64-.59-2.84,20.15a13,13,0,0,1-.72,2.9,5.43,5.43,0,0,1-1.42,2.11,5.33,5.33,0,0,1-2.43,1.18,8.43,8.43,0,0,1-1.25.2c-.36,0-.68,0-1,0l-.44-2c.23,0,.5,0,.82-.05a6.89,6.89,0,0,0,1-.16,3.23,3.23,0,0,0,2.44-2,6.82,6.82,0,0,0,.48-1.77l.37-2.47Z" transform="translate(93 1)"/><path d="M512.94,606.46a5.45,5.45,0,0,1,4.34.48q1.68,1.08,2.38,4.17l2.4,10.6-2.42.55-2.38-10.48a4.52,4.52,0,0,0-1.51-2.75,3.24,3.24,0,0,0-2.75-.42,4.2,4.2,0,0,0-3.1,2.14,6.63,6.63,0,0,0-.16,4.24l2.05,9-2.43.55L507,614.11a5.36,5.36,0,0,0-.87-2.1,2.73,2.73,0,0,0-1.42-1.06,3.78,3.78,0,0,0-2,0,4.6,4.6,0,0,0-2.43,1.24,3.83,3.83,0,0,0-1,2.3,10.25,10.25,0,0,0,.29,3.31l1.94,8.56-2.45.56-3.67-16.19,2-.45.89,2.21.13,0a5.14,5.14,0,0,1,.9-1.7,5.47,5.47,0,0,1,1.46-1.24,7.13,7.13,0,0,1,5.13-.75,4.06,4.06,0,0,1,2.28,1.68l.14,0a5.2,5.2,0,0,1,1.71-2.59A6.86,6.86,0,0,1,512.94,606.46Z" transform="translate(93 1)"/><path d="M536.79,601.36l3.67,16.19-2,.45-.87-2.19-.13,0a4.86,4.86,0,0,1-1,1.71,6.06,6.06,0,0,1-1.6,1.27,8,8,0,0,1-2,.77,7.75,7.75,0,0,1-3.36.11,4.29,4.29,0,0,1-2.4-1.48,7.67,7.67,0,0,1-1.41-3.19l-2.4-10.6,2.48-.56,2.36,10.42a4.5,4.5,0,0,0,1.6,2.82,3.75,3.75,0,0,0,3,.36,5.39,5.39,0,0,0,2.72-1.33,3.91,3.91,0,0,0,1.09-2.35,10.12,10.12,0,0,0-.27-3.35l-1.92-8.52Z" transform="translate(93 1)"/><path d="M540.75,595.79a1.61,1.61,0,0,1,.14-1.31,1.57,1.57,0,0,1,1-.63A1.53,1.53,0,0,1,543,594a1.55,1.55,0,0,1,.71,1.12,1.59,1.59,0,0,1-.16,1.3,1.61,1.61,0,0,1-2.1.48A1.61,1.61,0,0,1,540.75,595.79Zm4.59,28.29a7.41,7.41,0,0,1-1.34.19,8.29,8.29,0,0,1-1,0l-.45-2a8.18,8.18,0,0,0,1,0,6.78,6.78,0,0,0,1.08-.15,2.44,2.44,0,0,0,1.49-.93,2.72,2.72,0,0,0,.16-2.18L542,600.19l2.46-.56,4.24,18.74a6.31,6.31,0,0,1,.1,2.64,3.51,3.51,0,0,1-1.08,2A5.11,5.11,0,0,1,545.34,624.08Z" transform="translate(93 1)"/><path d="M555.77,596.75a6.75,6.75,0,0,1,3.75.12,6,6,0,0,1,2.84,2,9.06,9.06,0,0,1,1.66,3.67l.34,1.52-11.18,2.53a6.53,6.53,0,0,0,2.4,4,5.12,5.12,0,0,0,4.21.61,12.36,12.36,0,0,0,2.66-.89,16.33,16.33,0,0,0,2.26-1.38l.49,2.15A12.65,12.65,0,0,1,563,612.5a13.91,13.91,0,0,1-2.79.89,8.36,8.36,0,0,1-4.28,0,6.73,6.73,0,0,1-3.33-2.18,9.92,9.92,0,0,1-2-4.3,10.93,10.93,0,0,1-.15-4.73,7,7,0,0,1,1.81-3.51A7.07,7.07,0,0,1,555.77,596.75Zm.43,2a4.13,4.13,0,0,0-2.84,2,6.24,6.24,0,0,0-.58,3.91l8.57-1.94a7.21,7.21,0,0,0-1-2.45,3.73,3.73,0,0,0-1.71-1.41A4,4,0,0,0,556.2,598.77Z" transform="translate(93 1)"/><path d="M573.88,592.65c.32-.07.67-.13,1-.18a9.2,9.2,0,0,1,1-.07l.21,2.35a7.36,7.36,0,0,0-.92,0q-.51.06-.93.15a4.57,4.57,0,0,0-3,2.27,5.53,5.53,0,0,0-.62,2,6.92,6.92,0,0,0,.15,2.37l2,8.68-2.46.56-3.67-16.19,2-.46.94,2.93.1,0a8.61,8.61,0,0,1,.84-1.92,5.7,5.7,0,0,1,1.38-1.56A5,5,0,0,1,573.88,592.65Z" transform="translate(93 1)"/><path d="M585.11,590.11a6.79,6.79,0,0,1,3.76.11,6.11,6.11,0,0,1,2.84,2,9.05,9.05,0,0,1,1.65,3.67l.34,1.52L582.53,600a6.43,6.43,0,0,0,2.4,4,5.09,5.09,0,0,0,4.2.62,11.82,11.82,0,0,0,2.66-.9,14.6,14.6,0,0,0,2.26-1.38l.49,2.16a12.65,12.65,0,0,1-2.25,1.35,15.07,15.07,0,0,1-2.79.89,8.58,8.58,0,0,1-4.28,0,6.75,6.75,0,0,1-3.33-2.19,9.92,9.92,0,0,1-2-4.3,10.93,10.93,0,0,1-.15-4.73,6.9,6.9,0,0,1,1.82-3.5A7,7,0,0,1,585.11,590.11Zm.43,2a4.11,4.11,0,0,0-2.84,2,6.21,6.21,0,0,0-.58,3.9l8.57-1.94a7.3,7.3,0,0,0-1-2.45,3.75,3.75,0,0,0-1.71-1.41A4,4,0,0,0,585.54,592.12Z" transform="translate(93 1)"/><path d="M609.06,597.35a4.33,4.33,0,0,1-.18,2.78,4.75,4.75,0,0,1-1.86,2.09,10.17,10.17,0,0,1-3.31,1.31,14.27,14.27,0,0,1-3,.4,8.87,8.87,0,0,1-2.34-.26l-.51-2.26a14.67,14.67,0,0,0,2.56.35,10.47,10.47,0,0,0,2.9-.23,5.55,5.55,0,0,0,2.89-1.37,2.22,2.22,0,0,0,.52-2.06,1.93,1.93,0,0,0-.64-1.09,4,4,0,0,0-1.49-.71,21.31,21.31,0,0,0-2.69-.5,24.56,24.56,0,0,1-2.94-.56,5,5,0,0,1-2.07-1,3.8,3.8,0,0,1-1.11-2.05,3.66,3.66,0,0,1,1-3.53,8,8,0,0,1,4.12-2.09,12.63,12.63,0,0,1,2.8-.33,13.17,13.17,0,0,1,2.56.24l-.38,2.15a14.22,14.22,0,0,0-2.31-.24,9.11,9.11,0,0,0-2.38.23,5.08,5.08,0,0,0-2.48,1.15,1.76,1.76,0,0,0-.56,1.74,1.89,1.89,0,0,0,.7,1.15,4.11,4.11,0,0,0,1.56.61c.68.14,1.58.29,2.68.45a20.62,20.62,0,0,1,2.89.56,4.84,4.84,0,0,1,2,1.06A3.79,3.79,0,0,1,609.06,597.35Z" transform="translate(93 1)"/><path d="M614.32,594.52l-.17-.77a8.25,8.25,0,0,1-.24-2.08,4.76,4.76,0,0,1,.41-1.76,10.19,10.19,0,0,1,1.19-1.92c.62-.81,1.11-1.49,1.46-2a4.9,4.9,0,0,0,.66-1.57,4.21,4.21,0,0,0-.08-1.71,3,3,0,0,0-1.52-2.13,4.37,4.37,0,0,0-3-.19,8.53,8.53,0,0,0-2.51,1,16.72,16.72,0,0,0-2,1.38l-1.3-1.78a13.8,13.8,0,0,1,2.39-1.64,11.93,11.93,0,0,1,3.07-1.11,6.57,6.57,0,0,1,4.74.41,5.11,5.11,0,0,1,2.44,3.52,5.85,5.85,0,0,1,.09,2.44,6.15,6.15,0,0,1-.86,2.06c-.42.66-.93,1.37-1.53,2.14a12.41,12.41,0,0,0-1.16,1.79A3.77,3.77,0,0,0,616,592a5.62,5.62,0,0,0,.16,1.61l.11.49Zm.36,4.6a2,2,0,0,1,.15-1.58,1.91,1.91,0,0,1,1.16-.72,1.71,1.71,0,0,1,2.18,1.51,2,2,0,0,1-.18,1.6,1.79,1.79,0,0,1-1.13.75,1.85,1.85,0,0,1-1.36-.18A2,2,0,0,1,614.68,599.12Z" transform="translate(93 1)"/></svg>